# xmcd CD database file
#
# Track frame offsets:
#	150
#	10853
#	26454
#	37250
#	49684
#	62600
#	75343
#	86997
#	99863
#	113588
#	128340
#	140825
#	153669
#	166315
#	182036
#	195189
#	210304
#	237766
#	252390
#	271793
#	286451
#	306168
#	319983
#
# Disc length: 4457 seconds
#
# Revision: 0
# Processed by: cddbd v1.5.2PL0 Copyright (c) Steve Scherf et al.
# Submitted via: CDex 1.51
#
DISCID=2f116717
DTITLE=Humphrey Littleton - Bad Penny Blues 1955-1956  [CD2]
DYEAR=1955
DGENRE=Jazz
TTITLE0=It's A Thing
TTITLE1=Slippery Horn
TTITLE2=Handful Of Keys
TTITLE3=She's Crying For Me
TTITLE4=The Lady In Red
TTITLE5=Pagin' Mr Fagin
TTITLE6=Skeleton In The Cupboard
TTITLE7=Close Your Eyes
TTITLE8=Waiting For Picard
TTITLE9=Sugar Rose
TTITLE10=Bad Penny Blues
TTITLE11=Love, Love, Love
TTITLE12=Echoing The Blues
TTITLE13=Looking For Turner
TTITLE14=Doing The Rounds
TTITLE15=Glad Rag Doll
TTITLE16=Just One Of Those Blues
TTITLE17=Why Was I Born?
TTITLE18=Christopher Columbus
TTITLE19=That's My Home
TTITLE20=Swing Out
TTITLE21=It's Mardi Gras
TTITLE22=Sweet and Sour
EXTD=YEAR: 1955
EXTT0=
EXTT1=
EXTT2=
EXTT3=
EXTT4=
EXTT5=
EXTT6=
EXTT7=
EXTT8=
EXTT9=
EXTT10=
EXTT11=
EXTT12=
EXTT13=
EXTT14=
EXTT15=
EXTT16=
EXTT17=
EXTT18=
EXTT19=
EXTT20=
EXTT21=
EXTT22=
PLAYORDER=
